/* XPM */
static char *SquareBlock[] = {
/* columns rows colors chars-per-pixel */
"16 16 4 1",
"  c #FF3800",
". c #FF6100",
"X c #FF6D00",
"o c gray100",
/* pixels */
"o              o",
"  ............  ",
" .XXXXXXXXXXXX. ",
" .XXXXXXXXXXXX. ",
" .XXXXXXXXXXXX. ",
" .XXXXXXXXXXXX. ",
" .XXXXXXXXXXXX. ",
" .XXXXXXXXXXXX. ",
" .XXXXXXXXXXXX. ",
" .XXXXXXXXXXXX. ",
" .XXXXXXXXXXXX. ",
" .XXXXXXXXXXXX. ",
" .XXXXXXXXXXXX. ",
" .XXXXXXXXXXXX. ",
"  ............  ",
"o              o"
};
