/* XPM */
static char *RightBouncer[] = {
/* columns rows colors chars-per-pixel */
"16 16 10 1",
"  c #004173",
". c #004D84",
"X c #00599C",
"o c #0061AD",
"O c #0065B5",
"+ c #006DBD",
"@ c #0075CE",
"# c #0079D6",
"$ c #0082E7",
"% c gray100",
/* pixels */
"  .XoO@@@%%%%%%%",
" .XoO+@##@%%%%%%",
" .XoO+@#$#@%%%%%",
" .XoO+@#$$#@%%%%",
" .XoO+@#$$$#@%%%",
" .XoO+@#$$$$+O%%",
" .XoO+@#$$$$$+O%",
" .XoO+@#$$$$$$+O",
" .XoO+@#$$$$$$+O",
" .XoO+@#$$$$$+O%",
" .XoO+@#$$$$+O%%",
" .XoO+@#$$$#@%%%",
" .XoO+@#$$#@%%%%",
" .XoO+@#$#@%%%%%",
" .XoO+@##@%%%%%%",
"  .XoO@@@%%%%%%%"
};
