/* XPM */
static char *BurntGround[] = {
/* columns rows colors chars-per-pixel */
"16 16 41 1",
"  c black",
". c #080000",
"X c gray3",
"o c #180000",
"O c #101410",
"+ c #181C18",
"@ c #210000",
"# c #210808",
"$ c #290000",
"% c #290808",
"& c #211410",
"* c #211C18",
"= c #291410",
"- c #291C18",
"; c #310000",
": c #310808",
"> c #390000",
", c #311410",
"< c #311C18",
"1 c #292829",
"2 c #313031",
"3 c #393C39",
"4 c #420C08",
"5 c #4A0000",
"6 c #421410",
"7 c #4A1410",
"8 c #4A1C18",
"9 c #520000",
"0 c #5A0000",
"q c #4A3031",
"w c #522021",
"e c #630000",
"r c #730000",
"t c #7B0000",
"y c #7B1410",
"u c #424542",
"i c #525152",
"p c #840000",
"a c #8C0000",
"s c #940000",
"d c #A50000",
/* pixels */
"1+X+X+1 +1XO+OXX",
"1 +#O+X2+X2,4+1X",
" + >wO&8O< 07+++",
"X  e5+w0@ >s 31+",
"2 9p0$$rt  s 611",
"12 5;Xoper @y#+2",
"+13O +;e$7O,X*1+",
"+1++OOX:+O1OXOO1",
"+1++  @X ;;#OXO1",
"O1q  p  @;9 =O21",
"O11 s; 6%50s ++1",
"+1+-  ..@ de OXO",
"XO+XOo > ;  & +2",
"+XOOX@>a  %XXX3i",
"O1X++#.  XXOOu3u",
"O1XX1++OO+OOO3uu"
};
