/* XPM */
static char *Chompy[] = {
/* columns rows colors chars-per-pixel */
"16 16 11 1",
"  c black",
". c #006910",
"X c #4A0000",
"o c #009621",
"O c #00E329",
"+ c #A50000",
"@ c #EF0000",
"# c #FF3C39",
"$ c #C6C3C6",
"% c #D6D3D6",
"& c gray100",
/* pixels */
"&oooooooooooooo&",
"ooOOOOOOOOOOOOoo",
"o     OOOO     o",
"o$$+#$ OO $+#$$o",
"o $+@$OOOO$+@$ o",
"oO    OOOO    Oo",
"................",
".X%%X%%X%%X%%XX.",
".X%%X%%X%%X%%XX.",
".XX%X%XXX%XX%XX.",
".X%XXXXXXXXXXX%.",
".%%X%XXX%XX%X%%.",
"o.%X%%X%%X%%X%.o",
"oO..%%X%%X%%..Oo",
"ooOO........OOoo",
"&oooooooooooooo&"
};
