/* XPM */
static char *Counter7[] = {
/* columns rows colors chars-per-pixel */
"16 16 33 1",
"  c #7B00B5",
". c #B504FF",
"X c #B508FF",
"o c #B510FF",
"O c #B514FF",
"+ c #B518FF",
"@ c #B51CFF",
"# c #BD28FF",
"$ c #BD2CFF",
"% c #BD30FF",
"& c #C63CFF",
"* c #C641FF",
"= c #C645FF",
"- c #C649FF",
"; c #CE51FF",
": c #CE61FF",
"> c #CE69FF",
", c #D66DFF",
"< c #D675FF",
"1 c #DE8EFF",
"2 c #DE92FF",
"3 c #DE9AFF",
"4 c #EFBAFF",
"5 c #EFCBFF",
"6 c #F7D3FF",
"7 c #F7D7FF",
"8 c #F7DBFF",
"9 c #F7E3FF",
"0 c #FFEBFF",
"q c #FFF3FF",
"w c #FFF7FF",
"e c #FFFBFF",
"r c gray100",
/* pixels */
"                ",
"  ............  ",
" ....@-,<:=%o.. ",
" ..1weweewwee:. ",
" .+erwwrewrrr8. ",
" .Xwr6=#&>erw2. ",
" ..-3#...<wr0o. ",
" .......*wrq:.. ",
" ......$qrw5... ",
" .....;qre7o... ",
" ...X3erw9@.... ",
" ...3erw4O..... ",
" ...eww<....... ",
" ...=>o........ ",
"  ............  ",
"                "
};
