/* XPM */
static char *Counter5[] = {
/* columns rows colors chars-per-pixel */
"16 16 38 1",
"  c #7B00B5",
". c #B504FF",
"X c #B50CFF",
"o c #B514FF",
"O c #B518FF",
"+ c #B51CFF",
"@ c #BD24FF",
"# c #BD2CFF",
"$ c #BD30FF",
"% c #BD34FF",
"& c #BD38FF",
"* c #C63CFF",
"= c #C641FF",
"- c #C64DFF",
"; c #CE51FF",
": c #CE55FF",
"> c #CE5DFF",
", c #CE61FF",
"< c #CE69FF",
"1 c #D679FF",
"2 c #D67DFF",
"3 c #DE96FF",
"4 c #DE9AFF",
"5 c #E7AAFF",
"6 c #EFBAFF",
"7 c #EFC3FF",
"8 c #EFC7FF",
"9 c #EFCFFF",
"0 c #F7DBFF",
"q c #F7E3FF",
"w c #F7E7FF",
"e c #F7EBFF",
"r c #FFEBFF",
"t c #FFEFFF",
"y c #FFF3FF",
"u c #FFF7FF",
"i c #FFFBFF",
"p c gray100",
/* pixels */
"                ",
"  ............  ",
" ....%31;@..... ",
" ...Xyppui2.... ",
" ...,tpiui9.... ",
" ...8pip..O.... ",
" ...eppppu6.... ",
" ...upuiipy>... ",
" ...70:*0ip6... ",
" ..o#...&tpw... ",
" ..9i$..&tpq... ",
" ..ipr14ypi5... ",
" ..8ppppppt+... ",
" ..+0ipii9&.... ",
"  ...-2<=.....  ",
"                "
};
