/* XPM */
static char *Counter3[] = {
/* columns rows colors chars-per-pixel */
"16 16 31 1",
"  c #7B00B5",
". c #B504FF",
"X c #B508FF",
"o c #B510FF",
"O c #BD28FF",
"+ c #BD2CFF",
"@ c #C641FF",
"# c #C645FF",
"$ c #C649FF",
"% c #C64DFF",
"& c #CE51FF",
"* c #CE55FF",
"= c #CE5DFF",
"- c #CE61FF",
"; c #CE65FF",
": c #D671FF",
"> c #D675FF",
", c #D67DFF",
"< c #DE8AFF",
"1 c #DE96FF",
"2 c #E7A2FF",
"3 c #E7AEFF",
"4 c #E7B2FF",
"5 c #EFCBFF",
"6 c #F7DBFF",
"7 c #F7E7FF",
"8 c #FFEBFF",
"9 c #FFF3FF",
"0 c #FFF7FF",
"q c #FFFBFF",
"w c gray100",
/* pixels */
"                ",
"  ............  ",
" .....$<2-X.... ",
" ....&qwwq5.... ",
" ....;00ww0#... ",
" ....X%;6w0=... ",
" ....&9wqw0O... ",
" ....&qw0w0*... ",
" .....oO:0w0o.. ",
" ...OO...3w0%.. ",
" ..@wq1:40w9%.. ",
" ..,qwwqwww7o.. ",
" ..O80qwqq7+... ",
" ...o%,1>%..... ",
"  ............  ",
"                "
};
