/* XPM */
static char *Counter8[] = {
/* columns rows colors chars-per-pixel */
"16 16 41 1",
"  c #7B00B5",
". c #B504FF",
"X c #B508FF",
"o c #B50CFF",
"O c #B510FF",
"+ c #B518FF",
"@ c #B51CFF",
"# c #BD20FF",
"$ c #BD28FF",
"% c #BD34FF",
"& c #C63CFF",
"* c #C645FF",
"= c #C64DFF",
"- c #CE51FF",
"; c #CE61FF",
": c #CE69FF",
"> c #D66DFF",
", c #D671FF",
"< c #D675FF",
"1 c #D679FF",
"2 c #D682FF",
"3 c #DE86FF",
"4 c #DE8AFF",
"5 c #DE9AFF",
"6 c #E79EFF",
"7 c #E7A2FF",
"8 c #E7A6FF",
"9 c #E7AAFF",
"0 c #EFBEFF",
"q c #EFC3FF",
"w c #EFCBFF",
"e c #F7D3FF",
"r c #F7D7FF",
"t c #F7DFFF",
"y c #F7E3FF",
"u c #F7E7FF",
"i c #FFEFFF",
"p c #FFF3FF",
"a c #FFF7FF",
"s c #FFFBFF",
"d c gray100",
/* pixels */
"                ",
"  ............  ",
" .....o$*&#.... ",
" ...O5adasdu;.. ",
" ...esdasasdp,. ",
" ..@dds1%=8idt. ",
" ...usap0rsdp3. ",
" ..&ysdddddai#. ",
" ..tds7:=,qad9. ",
" .@dda&o.@<pdt. ",
" ..tddsdadada2. ",
" ..$ysddddaa4X. ",
" ...o-9wq6>+... ",
" .............. ",
"  ............  ",
"                "
};
