/* XPM */
static char *Counter9[] = {
/* columns rows colors chars-per-pixel */
"16 16 41 1",
"  c #7B00B5",
". c #B504FF",
"X c #B508FF",
"o c #B50CFF",
"O c #B510FF",
"+ c #B514FF",
"@ c #B518FF",
"# c #B51CFF",
"$ c #BD28FF",
"% c #BD30FF",
"& c #BD38FF",
"* c #C63CFF",
"= c #C649FF",
"- c #CE51FF",
"; c #CE5DFF",
": c #CE65FF",
"> c #CE69FF",
", c #D671FF",
"< c #D679FF",
"1 c #D67DFF",
"2 c #DE8AFF",
"3 c #DE92FF",
"4 c #E79EFF",
"5 c #E7A2FF",
"6 c #E7AAFF",
"7 c #E7AEFF",
"8 c #E7B2FF",
"9 c #EFB6FF",
"0 c #EFBEFF",
"q c #EFC7FF",
"w c #EFCBFF",
"e c #EFCFFF",
"r c #F7D3FF",
"t c #F7DBFF",
"y c #F7E3FF",
"u c #F7E7FF",
"i c #FFEFFF",
"p c #FFF3FF",
"a c #FFF7FF",
"s c #FFFBFF",
"d c gray100",
/* pixels */
"                ",
"  ............  ",
" ....o=:1;*.... ",
" ...:psadast*.. ",
" ..,addassddp$. ",
" .Xsda4-%>qad6. ",
" .@dds;#.%3ady. ",
" ..9adadsssdd0. ",
" ..O8sadddssa;. ",
" ....%:5ruddw.. ",
" .....+,ydde#.. ",
" ...&7ssda2X... ",
" ...idds2+..... ",
" ...=<=O....... ",
"  ............  ",
"                "
};
