/* XPM */
static char *Counter1[] = {
/* columns rows colors chars-per-pixel */
"16 16 39 1",
"  c #7B00B5",
". c #B504FF",
"X c #B508FF",
"o c #B50CFF",
"O c #B510FF",
"+ c #B514FF",
"@ c #B518FF",
"# c #B51CFF",
"$ c #BD20FF",
"% c #BD24FF",
"& c #BD2CFF",
"* c #BD30FF",
"= c #BD34FF",
"- c #C645FF",
"; c #CE51FF",
": c #CE55FF",
"> c #CE61FF",
", c #CE69FF",
"< c #D66DFF",
"1 c #D675FF",
"2 c #D679FF",
"3 c #D682FF",
"4 c #D686FF",
"5 c #DE8AFF",
"6 c #DE92FF",
"7 c #DE96FF",
"8 c #E7A2FF",
"9 c #E7A6FF",
"0 c #E7B6FF",
"q c #EFBAFF",
"w c #EFC3FF",
"e c #EFCBFF",
"r c #F7D7FF",
"t c #F7E3FF",
"y c #F7E7FF",
"u c #FFF3FF",
"i c #FFF7FF",
"p c #FFFBFF",
"a c gray100",
/* pixels */
"                ",
"  ............  ",
" ....o-4wy8X... ",
" ..+wpppaai;... ",
" ..,aaiaaap2... ",
" ..O65:*9au:... ",
" .......0au=... ",
" .......rapO... ",
" .......pau.... ",
" ......&iar.... ",
" ..%rt75uaq%#.. ",
" ..1paaiaaaaa-. ",
" ..@eaipaaapp;. ",
" ....$-:<31>&.. ",
"  ............  ",
"                "
};
