/* XPM */
static char *Counter0[] = {
/* columns rows colors chars-per-pixel */
"16 16 48 1",
"  c #7B00B5",
". c #B504FF",
"X c #B506FF",
"o c #B70AFF",
"O c #B50EFF",
"+ c #B80EFF",
"@ c #B912FF",
"# c #C12EFF",
"$ c #C63EFF",
"% c #C845FF",
"& c #C949FF",
"* c #CA4DFF",
"= c #CB51FF",
"- c #CD55FF",
"; c #CE59FF",
": c #CE5BFF",
"> c #CF5DFF",
", c #D165FF",
"< c #D46FFF",
"1 c #D675FF",
"2 c #D779FF",
"3 c #D981FF",
"4 c #DB85FF",
"5 c #DD8CFF",
"6 c #DF95FF",
"7 c #E19AFF",
"8 c #E3A0FF",
"9 c #E4A5FF",
"0 c #E5A7FF",
"q c #E8B1FF",
"w c #EBBDFF",
"e c #F1D2FF",
"r c #F6E3FF",
"t c #F8E8FF",
"y c #F9EBFF",
"u c #F9ECFF",
"i c #FAEEFF",
"p c #FAEFFF",
"a c #FAF0FF",
"s c #FAF1FF",
"d c #FBF3FF",
"f c #FBF4FF",
"g c #FCF6FF",
"h c #FCF7FF",
"j c #FCF8FF",
"k c #FDFBFF",
"l c #FEFEFF",
"z c gray100",
/* pixels */
"                ",
"  ............  ",
" ....O>76=@.... ",
" ...=tzzzzp$... ",
" ..=fzd&$gzd=.. ",
" ..rzzw..9zzpo. ",
" .$fzz8..3zzp*. ",
" .2kzz3..3zzk1. ",
" .1fzz3..4zzd,. ",
" .-dzz3..qzzd#. ",
" .+pzz9..ezzt.. ",
" ..;gzd*;gzg%.. ",
" ...<gzzzzd;... ",
" ....@>35=..... ",
"  ............  ",
"                "
};
