/* XPM */
static char *Counter2[] = {
/* columns rows colors chars-per-pixel */
"16 16 41 1",
"  c #7B00B5",
". c #B504FF",
"X c #B508FF",
"o c #B50CFF",
"O c #B510FF",
"+ c #B514FF",
"@ c #B518FF",
"# c #B51CFF",
"$ c #BD24FF",
"% c #BD28FF",
"& c #BD2CFF",
"* c #BD30FF",
"= c #BD34FF",
"- c #C63CFF",
"; c #C645FF",
": c #CE65FF",
"> c #D66DFF",
", c #D671FF",
"< c #D675FF",
"1 c #D682FF",
"2 c #DE8EFF",
"3 c #DE96FF",
"4 c #DE9AFF",
"5 c #E79EFF",
"6 c #E7A2FF",
"7 c #E7AAFF",
"8 c #E7AEFF",
"9 c #E7B6FF",
"0 c #EFBAFF",
"q c #EFBEFF",
"w c #EFCFFF",
"e c #F7D3FF",
"r c #F7D7FF",
"t c #F7E3FF",
"y c #F7E7FF",
"u c #FFEBFF",
"i c #FFEFFF",
"p c #FFF3FF",
"a c #FFF7FF",
"s c #FFFBFF",
"d c gray100",
/* pixels */
"                ",
"  ............  ",
" .....&>5,%.... ",
" ...#0addas*... ",
" ...esdsddd0... ",
" ...udy38adu... ",
" ...@*..$ide... ",
" .......:pp<... ",
" ......=adeX... ",
" ....o2dd0@-+.. ",
" ...;tddpqasw.. ",
" ..9addsdddsq.. ",
" ..raddddas7#.. ",
" ..O:1641;o.... ",
"  ............  ",
"                "
};
