/* XPM */
static char *Counter6[] = {
/* columns rows colors chars-per-pixel */
"16 16 38 1",
"  c #7B00B5",
". c #B504FF",
"X c #B508FF",
"o c #B50CFF",
"O c #B510FF",
"+ c #B514FF",
"@ c #BD24FF",
"# c #BD28FF",
"$ c #BD34FF",
"% c #C63CFF",
"& c #C641FF",
"* c #C645FF",
"= c #C651FF",
"- c #CE51FF",
"; c #CE59FF",
": c #CE5DFF",
"> c #CE69FF",
", c #D671FF",
"< c #D675FF",
"1 c #D67DFF",
"2 c #DE8AFF",
"3 c #DE96FF",
"4 c #DE9AFF",
"5 c #E79EFF",
"6 c #E7A2FF",
"7 c #E7A6FF",
"8 c #E7AAFF",
"9 c #EFBAFF",
"0 c #EFC3FF",
"q c #EFCBFF",
"w c #EFCFFF",
"e c #F7D7FF",
"r c #F7E7FF",
"t c #FFEBFF",
"y c #FFF3FF",
"u c #FFF7FF",
"i c #FFFBFF",
"p c gray100",
/* pixels */
"                ",
"  .....o$$o...  ",
" ....@qpiip7O.. ",
" ...=uppippi5.. ",
" ..+ypy9<0pp2.. ",
" ..5ii6...O+... ",
" ..rpu4681#.... ",
" .Xppiipppi2... ",
" .@uppipiipu>.. ",
" ..ppi%O*8upe.. ",
" ..epy5-%3ypw.. ",
" ..&uppuiipu,.. ",
" ...;tuipuu,... ",
" ....o-,1:+.... ",
"  ............  ",
"                "
};
