/* XPM */
static char *Counter4[] = {
/* columns rows colors chars-per-pixel */
"16 16 33 1",
"  c #7B00B5",
". c #B504FF",
"X c #B51CFF",
"o c #BD24FF",
"O c #BD30FF",
"+ c #BD38FF",
"@ c #C63CFF",
"# c #C64DFF",
"$ c #CE55FF",
"% c #D675FF",
"& c #D679FF",
"* c #D682FF",
"= c #DE8AFF",
"- c #DE92FF",
"; c #DE96FF",
": c #E7A2FF",
"> c #E7A6FF",
", c #E7AAFF",
"< c #EFB6FF",
"1 c #EFBAFF",
"2 c #EFCFFF",
"3 c #F7D3FF",
"4 c #F7D7FF",
"5 c #F7DFFF",
"6 c #F7E3FF",
"7 c #F7E7FF",
"8 c #F7EBFF",
"9 c #FFEBFF",
"0 c #FFEFFF",
"q c #FFF3FF",
"w c #FFF7FF",
"e c #FFFBFF",
"r c gray100",
/* pixels */
"                ",
"  ............  ",
" ....X;$....... ",
" ...X6e7*>@.... ",
" ...1er3qr5.... ",
" ..+qrw<er:.... ",
" ..,rw;0rq#.... ",
" ..6rq&qrqo.... ",
" ..rrwrerrr>... ",
" ..>qerrrre3... ",
" ...+=wrw2-X... ",
" .....9rwX..... ",
" .....wre...... ",
" .....8e4...... ",
"  ....O%X.....  ",
"                "
};
