/* XPM */
static char *GravityUp[] = {
/* columns rows colors chars-per-pixel */
"16 16 3 1",
"  c #006510",
". c #00EF21",
"X c gray100",
/* pixels */
"XXXXXXX XXXXXXXX",
"XXXXXX   XXXXXXX",
"XXXXX  .  XXXXXX",
"XXXX  ...  XXXXX",
"XXX    .    XXXX",
"XXXXXX . XXXXXXX",
"XXXXXX . XXXXXXX",
"XX     .     XXX",
"XX ......... XXX",
"XX .XXXXXXX. XXX",
"XX .XXXXXXXXXXXX",
"XX .XXXXX     XX",
"XX .XXXXX.....XX",
"XX .XXXXXXX. XXX",
"XX ......... XXX",
"XX           XXX"
};
