/* XPM */
static char *Key[] = {
/* columns rows colors chars-per-pixel */
"16 16 7 1",
"  c #6300FF",
". c #848284",
"X c #A5A2A5",
"o c #BDBEBD",
"O c #C6C3C6",
"+ c #CECFCE",
"@ c gray100",
/* pixels */
"@@@@@@@@@@@@@@@@",
"@@@@@@@@@@@@@@@@",
"@@@@@@@@@@@@@@@@",
"@@@@@@@@@@@@@@@@",
"@@@@@@@@@@@@@@@@",
"@@  @@@@@@@@@@@@",
"@    @@@@@@@@@@@",
"  @  XoOO++++XX@",
"  @  XXXXXXXXXX.",
"  @  .....X..X.@",
"@    @@@@.X@.X@@",
"@@  @@@@@.X@.X@@",
"@@@@@@@@@..@..@@",
"@@@@@@@@@@@@@@@@",
"@@@@@@@@@@@@@@@@",
"@@@@@@@@@@@@@@@@"
};
