/* XPM */
static char * keyed_wall_xpm[] = {
"16 16 60 1",
" 	c None",
".	c #9C9A9C",
"+	c #9B999B",
"@	c #E7E7E7",
"#	c #D8D8D8",
"$	c #5A595A",
"%	c #3F3E3F",
"&	c #5A5A5A",
"*	c #3C3C3C",
"=	c #010101",
"-	c #565656",
";	c #E6E6E6",
">	c #C6C3C6",
",	c #353435",
"'	c #000000",
")	c #787878",
"!	c #202020",
"~	c #0E0E0E",
"{	c #3E3D3E",
"]	c #797879",
"^	c #DBDBDB",
"/	c #1C1C1C",
"(	c #161616",
"_	c #565556",
":	c #080808",
"<	c #C0C0C0",
"[	c #C5C2C5",
"}	c #373637",
"|	c #050505",
"1	c #868686",
"2	c #383738",
"3	c #060606",
"4	c #040404",
"5	c #4B4A4B",
"6	c #4C4B4C",
"7	c #555455",
"8	c #111111",
"9	c #262626",
"0	c #B4B1B4",
"a	c #595859",
"b	c #0A090A",
"c	c #949294",
"d	c #848284",
"e	c #4D4B4D",
"f	c #6E6C6E",
"g	c #5C5B5C",
"h	c #9A989A",
"i	c #2E2D2E",
"j	c #464546",
"k	c #4E4D4E",
"l	c #747374",
"m	c #868486",
"n	c #292829",
"o	c #3D3C3D",
"p	c #4A494A",
"q	c #ACA9AC",
"r	c #3C3B3C",
"s	c #181718",
"t	c #8C8A8C",
"u	c #959395",
"..+..+..........",
"..@@@#@@@@@@@@..",
".$%&*=-@;@@@@.>.",
".,'')'!@@@@@.>>.",
"+~'{]''^;@@.>>>.",
"./(_'':<@@.>>[>.",
".}'|''''1.>>>>>.",
".2'3:4'''5>>>>>.",
".$6$$78'''90>>>.",
".$$$a$.,'''bc>>.",
".$$$$.de'''''f>.",
".$$$.dg''e|'''h.",
".$$.ddijkl''''m.",
".$.ddddddn'opdq.",
"..dddddddrsddd..",
".........tu....."};
