/* XPM */
static char *Kye[] = {
/* columns rows colors chars-per-pixel */
"16 16 159 2",
"   c #002000",
".  c #002C00",
"X  c #003400",
"o  c #003C00",
"O  c #083C08",
"+  c #102C10",
"@  c #103018",
"#  c #183010",
"$  c #182421",
"%  c #293021",
"&  c #004100",
"*  c #004500",
"=  c #004508",
"-  c #004900",
";  c #084900",
":  c #084D00",
">  c #084908",
",  c #005500",
"<  c #005D00",
"1  c #085D00",
"2  c #184510",
"3  c #006100",
"4  c #006500",
"5  c #006900",
"6  c #006D08",
"7  c #086108",
"8  c #086D08",
"9  c #006518",
"0  c #007500",
"q  c #007900",
"w  c #007D00",
"e  c #087500",
"r  c #007910",
"t  c #186D18",
"y  c #297D31",
"u  c #008E08",
"i  c #088600",
"p  c #009600",
"a  c #009A00",
"s  c #109E00",
"d  c #109A10",
"f  c #008A29",
"g  c #188629",
"h  c #00A200",
"j  c #00A208",
"k  c #00A608",
"l  c #00AE00",
"z  c #00AA08",
"x  c #08A600",
"c  c #08AE00",
"v  c #00AE10",
"b  c #00AA18",
"n  c #08A610",
"m  c #00BA00",
"M  c #00B610",
"N  c #00AA29",
"B  c #299639",
"V  c #00CB08",
"C  c #00C318",
"Z  c #00C718",
"A  c #00CF10",
"S  c #08D308",
"D  c #00D310",
"F  c #00DF10",
"G  c #00DF18",
"H  c #00C721",
"J  c #00CF21",
"K  c #08C729",
"L  c #00D721",
"P  c #00DF29",
"I  c #08D321",
"U  c #00DB31",
"Y  c #00DF31",
"T  c #10DB29",
"R  c #00E300",
"E  c #00E308",
"W  c #00E318",
"Q  c #00EF10",
"!  c #00EB18",
"~  c #00E721",
"^  c #00E329",
"/  c #00EB21",
"(  c #00EF29",
")  c #08EB29",
"_  c #00E331",
"`  c #00E731",
"'  c #08E331",
"]  c #08E731",
"[  c #08E339",
"{  c #08E739",
"}  c #08EF31",
"|  c #00FB31",
" . c #00FB39",
".. c #10E329",
"X. c #21DB29",
"o. c #29D739",
"O. c #21F739",
"+. c #00EB42",
"@. c #00EF42",
"#. c #08E742",
"$. c #08EB4A",
"%. c #00F342",
"&. c #00F742",
"*. c #00FF42",
"=. c #08FB4A",
"-. c #10EF4A",
";. c #10FF4A",
":. c #18FF42",
">. c #18FF63",
",. c #21E352",
"<. c #21FB52",
"1. c #29FB5A",
"2. c #21F363",
"3. c #21FF63",
"4. c #21FF6B",
"5. c #31F36B",
"6. c #39F36B",
"7. c #39FF73",
"8. c #42F35A",
"9. c #42F77B",
"0. c #42FF7B",
"q. c #4AFF7B",
"w. c #5AFF6B",
"e. c #63EF7B",
"r. c #39FBA5",
"t. c #4AEF94",
"y. c #42F384",
"u. c #4AF78C",
"i. c #4AFB84",
"p. c #52E78C",
"a. c #52FF8C",
"s. c #5AFFA5",
"d. c #73D3B5",
"f. c #63FF84",
"g. c #63FF8C",
"h. c #6BFB9C",
"j. c #73FB8C",
"k. c #73EBBD",
"l. c #7BF7AD",
"z. c #73FFB5",
"x. c #8CEFB5",
"c. c #84FBAD",
"v. c #8CFFAD",
"b. c #84F7B5",
"n. c #84F3BD",
"m. c #84FFBD",
"M. c #8CFFB5",
"N. c #9CE7BD",
"B. c #94FFCE",
"V. c #9CFFCE",
"C. c #94FFD6",
"Z. c #9CFFD6",
"A. c #ADEBC6",
"S. c #A5FBCE",
"D. c #A5F7DE",
"F. c #BDEBDE",
"G. c #A5FFEF",
"H. c #B5FFEF",
"J. c gray100",
/* pixels */
"J.J.J.J.J.J.J.&.5.J.J.J.J.J.J.J.",
"J.J.J.J.J.N H o.=.>.y.J.J.J.J.J.",
"J.J.J.f n D } | ;.e.t.r.z.J.J.J.",
"J.J.9 L S ) P :.>.s.B.N.c.a.J.J.",
"J.r h ^ T W O.2.f.v.x.C.Z.n.d.J.",
"J.< s !  .@.K 0.h.V.F.D.S.b.k.J.",
"* g d F / %.-.3.p.H.G.G.l.g.4.,.",
"6 w b +.X.Q E <.j.M.A.C.m.u.w.8.",
", q k ..~ ( ( 1.7.9.i.a.q.6.*.$.",
"X 7 0 v J Y ^ _ U Y { #.[ U R V ",
"J.> 3 u z Z A ` ` ] ' I C M B J.",
"J.+ & 4 q a c G ~ G V m l x y J.",
"J.J.  : , 5 w j z h a p i e J.J.",
"J.J.J.2 = - < 1 < 3 8 t ; J.J.J.",
"J.J.J.J.J.$ @ o O # % J.J.J.J.J.",
"J.J.J.J.J.J.J.& . J.J.J.J.J.J.J."
};
