/* XPM */
static char *KyeWarper[] = {
/* columns rows colors chars-per-pixel */
"16 16 69 1",
"  c #007C26",
". c #088329",
"X c #0A8328",
"o c #08852A",
"O c #0D8429",
"+ c #0D872A",
"@ c #0F9030",
"# c #0E9D3A",
"$ c #12892A",
"% c #128F2F",
"& c #148D2D",
"* c #1F8D2A",
"= c #169D37",
"- c #10A13C",
"; c #11A53E",
": c #3B9528",
"> c #3E9B2C",
", c #19AC41",
"< c #17B347",
"1 c #1CBE4D",
"2 c #1DBF4D",
"3 c #1DC250",
"4 c #23CE57",
"5 c #25D45B",
"6 c #26D65C",
"7 c #27D85D",
"8 c #29D459",
"9 c #29DD60",
"0 c #29DF61",
"q c #2CE564",
"w c #2FED69",
"e c #30EF6B",
"r c #32F36D",
"t c #35F971",
"y c #36FD73",
"u c #37FF74",
"i c #58A52C",
"p c #80B12B",
"a c #81B32C",
"s c #8EB82C",
"d c #9CBD2C",
"f c #A0BF2C",
"g c #80B34C",
"h c #80B350",
"j c #A4C02D",
"k c #ACC42D",
"l c #C0CC2E",
"z c #C4CE2E",
"x c #CCD12E",
"c c #D8D62F",
"v c #FFDF10",
"b c #E0D92F",
"n c #E8DD30",
"m c #ECDF30",
"M c #F0E030",
"N c #F8E430",
"B c #FFE731",
"V c #D0D664",
"C c #E0DD69",
"Z c #FFE75A",
"A c #E8E064",
"S c #E8E073",
"D c #FFEB6B",
"F c #FFEB73",
"G c #FFEB7B",
"H c #FFEF94",
"J c #F8F3B1",
"K c #FFF7B5",
"L c #FFFBCE",
/* pixels */
"LLLKKZBBBBDKKLLL",
"LKKDBBBBBBvvDKKL",
"LKApppMBBkpppgJL",
"KDp;1#fBs%11-+SK",
"KBp4u1fs%ru7&cBK",
"DBp4u1:%ru5.xBBF",
"BBp4u3%ruq.zBBBB",
"BBp4uutuue.bBBBB",
"BBp4uuu68u1>BBBB",
"BBp4uu5$Xey@jBBB",
"FBp4u0$cp=u0+mBG",
"KBp4u1dBN*4u,iBK",
"KFp-1#fBBlo1< VK",
"LKCpppnBBBfppgJL",
"LKKFBBBBBBBBFKKL",
"LLLKKGBBBBHKKLLL"
};
