/* XPM */
static char *Lava[] = {
/* columns rows colors chars-per-pixel */
"16 16 26 1",
"  c black",
". c #080000",
"X c #290000",
"o c #310000",
"O c #420000",
"+ c #4A0000",
"@ c #520000",
"# c #5A0000",
"$ c #6B0000",
"% c #730000",
"& c #7B0000",
"* c #840000",
"= c #940000",
"- c #9C0000",
"; c #A50000",
": c #AD0000",
"> c #BD0000",
", c #C60000",
"< c #CE0000",
"1 c #D60000",
"2 c #E70000",
"3 c #EF0000",
"4 c #F70000",
"5 c #FF0400",
"6 c OrangeRed",
"7 c #FF7500",
/* pixels */
"54,-=:3555555555",
"51==;>3576222<14",
"5<:255567>--**,4",
"53245664:#@@+=35",
"56667752*@$&-155",
"66556662;->14565",
"5542356622346765",
"54<==<4665667345",
"52-@X#,467641><4",
"53;@. $<4673>=;1",
"151*O.X-3564<=-<",
"1741:%o$15653=%>",
"177541;-15652%O;",
"127665544565<&*1",
"2,13366666652<35",
"4211<<3565555555"
};
