/* XPM */
static char *MonsterFactory[] = {
/* columns rows colors chars-per-pixel */
"16 16 94 2",
"   c black",
".  c #010101",
"X  c #020202",
"o  c gray1",
"O  c gray2",
"+  c #060606",
"@  c gray4",
"#  c #0B0B0B",
"$  c #0C0C0C",
"%  c gray6",
"&  c #101010",
"*  c gray8",
"=  c #151515",
"-  c #181818",
";  c #191919",
":  c gray10",
">  c #202020",
",  c #282828",
"<  c gray18",
"1  c #2F2F2F",
"2  c gray20",
"3  c gray21",
"4  c #393939",
"5  c #3C3C3C",
"6  c #3E3E3E",
"7  c #3F3F3F",
"8  c gray25",
"9  c #414141",
"0  c #434343",
"q  c gray28",
"w  c #484848",
"e  c #4E4E4E",
"r  c gray32",
"t  c #565656",
"y  c #585858",
"u  c gray36",
"i  c #5D5D5D",
"p  c #626262",
"a  c gray39",
"s  c #646464",
"d  c gray40",
"f  c gray42",
"g  c #6F6F6F",
"h  c #727272",
"j  c #767676",
"k  c #777777",
"l  c gray48",
"z  c #7C7C7C",
"x  c gray49",
"c  c #7E7E7E",
"v  c #818181",
"b  c #868686",
"n  c #888888",
"m  c #898989",
"M  c #8D8D8D",
"N  c gray56",
"B  c #909090",
"V  c gray57",
"C  c #929292",
"Z  c #959595",
"A  c gray60",
"S  c #9D9D9D",
"D  c #A0A0A0",
"F  c gray63",
"G  c gray64",
"H  c #A9A9A9",
"J  c #AAAAAA",
"K  c #ACACAC",
"L  c #AEAEAE",
"P  c #AFAFAF",
"I  c #B4B4B4",
"U  c #B9B9B9",
"Y  c gray74",
"T  c gray",
"R  c #C0C0C0",
"E  c #CACACA",
"W  c #CBCBCB",
"Q  c gray80",
"!  c #CECECE",
"~  c gray81",
"^  c LightGray",
"/  c #D5D5D5",
"(  c #DFDFDF",
")  c #E1E1E1",
"_  c #E2E2E2",
"`  c gray89",
"'  c gray91",
"]  c #EAEAEA",
"[  c #EEEEEE",
"{  c #EFEFEF",
"}  c #F1F1F1",
"|  c #F6F6F6",
" . c gray97",
".. c gray100",
/* pixels */
"..      ................      ..",
"  ; v ,   ............  , v ;   ",
"= r  .u   ............  u  .r * ",
"c ' { M $             $ M { _ j ",
"< p C ) h ; 7 9 6 5 ; h ) C p < ",
"    & b G A [  .' Q m G b &     ",
"....  - y ^ ( | } R K t -   ....",
"......@ M l 0 ( ^ 0 k c @ ......",
"......@ M s e Y Y e i c @ ......",
"......O t U P R R H F e O ......",
"....  X 4 J W B N U Z 3 X   ....",
"..    2 T x P D S n z L 1     ..",
"+ r f ~ Q q x a p g q E ! f r + ",
"- I ] / w o % : : % o w ` ] I - ",
". , V R >   ........  > Q b , . ",
"... 8 d # ............# d 8 . .."
};
