/* XPM */
static char * note_xpm[] = {
"16 16 92 2",
"  	c #FFFFFF",
". 	c #000000",
"+ 	c #F4DC3F",
"@ 	c #F9EC77",
"# 	c #FAEE7E",
"$ 	c #FBF08F",
"% 	c #FBF29D",
"& 	c #FBF5B1",
"* 	c #FDF7BE",
"= 	c #FDF8C3",
"- 	c #FDF7C0",
"; 	c #FDF7BF",
"> 	c #EECB22",
", 	c #F2D632",
"' 	c #F3DD43",
") 	c #F4DB44",
"! 	c #F5DE57",
"~ 	c #F5E267",
"{ 	c #F6E46E",
"] 	c #F7E776",
"^ 	c #F7E773",
"/ 	c #F7E568",
"( 	c #F8E76A",
"_ 	c #F9EB74",
": 	c #DFA90B",
"< 	c #EABE14",
"[ 	c #EBC318",
"} 	c #DCA20D",
"| 	c #E5BB1C",
"1 	c #EBC624",
"2 	c #ECC927",
"3 	c #ECC926",
"4 	c #ECC71F",
"5 	c #F8E96A",
"6 	c #F3D93B",
"7 	c #F6E255",
"8 	c #EECC23",
"9 	c #EECA20",
"0 	c #EDC71C",
"a 	c #ECC61B",
"b 	c #EFCC23",
"c 	c #EFCD24",
"d 	c #F1D22D",
"e 	c #F1D433",
"f 	c #F0D22D",
"g 	c #F5DF46",
"h 	c #51450C",
"i 	c #F1D430",
"j 	c #F4DB3D",
"k 	c #F3DB43",
"l 	c #F8EA72",
"m 	c #F6E04A",
"n 	c #F7E65D",
"o 	c #FAED7F",
"p 	c #F8E762",
"q 	c #F9EA6D",
"r 	c #F9EB71",
"s 	c #FAF195",
"t 	c #FBF193",
"u 	c #F9EB70",
"v 	c #FBF39B",
"w 	c #FCF5AF",
"x 	c #FCF6B5",
"y 	c #FCF5B2",
"z 	c #F8E763",
"A 	c #FCF4A9",
"B 	c #FBF5AD",
"C 	c #FBF196",
"D 	c #FBF191",
"E 	c #F6E352",
"F 	c #FBF092",
"G 	c #FAEE84",
"H 	c #F9EE7E",
"I 	c #F9EC78",
"J 	c #DC9B08",
"K 	c #F5E04B",
"L 	c #F5E04A",
"M 	c #F6E357",
"N 	c #F7E661",
"O 	c #F6E355",
"P 	c #F6E356",
"Q 	c #F6E353",
"R 	c #DC9E0A",
"S 	c #F5DE42",
"T 	c #F5DE45",
"U 	c #F5DF49",
"V 	c #F5DD40",
"W 	c #F4DB39",
"X 	c #F4DC3B",
"Y 	c #F4DB37",
"Z 	c #EECC22",
"` 	c #E1A90B",
"                                ",
"    . . . . . . . . . .         ",
"  . + @ # $ % & * = - ; .       ",
". > , ' ) ! ~ { ] ^ / ( _ .     ",
". : < [ } | 1 2 3 3 4 . 5 .     ",
"  . . . . . . . . . . 6 7 .     ",
"    . 8 9 0 a b c d e f g .     ",
"    . 8 h h h i j h k h l .     ",
"    . m h h h n h h h h o .     ",
"    . p h q h h h r h s t .     ",
"    . u u u u u @ v w x y .     ",
"    . z h h h h A B h h C D .   ",
"    . E h h F h h G h H I . J . ",
"    . g g K L K M N O P Q . R . ",
"      . Q g S T U V W X Y Z ` . ",
"        . . . . . . . . . . .   "};
