/* XPM */
static char *ObjectWarper[] = {
/* columns rows colors chars-per-pixel */
"16 16 62 1",
"  c #76768D",
". c #74798B",
"X c #7D708E",
"o c #35BA75",
"O c #38B676",
"+ c #14DD6A",
"@ c #18D96B",
"# c #09E866",
"$ c #00F363",
"% c #02F063",
"& c #23CD6F",
"* c #21FF7B",
"= c #529A7B",
"- c #509B7F",
"; c #47A77B",
": c #43AB7A",
"> c #40AF79",
", c #4BA17D",
"< c #4AA37D",
"1 c #4EA07E",
"2 c #559880",
"3 c #569881",
"4 c #599482",
"5 c #608D84",
"6 c #6B8188",
"7 c #6B8189",
"8 c #5AFF9C",
"9 c #B13BA1",
"0 c #B438A2",
"q c #BA33A5",
"w c #B834A4",
"e c #935796",
"r c #945594",
"t c #915C96",
"y c #955898",
"u c #99579A",
"i c #9B559A",
"p c #9E519B",
"a c #876793",
"s c #A14E9C",
"d c #A7499E",
"f c #A8469F",
"g c #DD0CB0",
"h c #D01BAC",
"j c #D318AE",
"k c #D01CAC",
"l c #D11CAD",
"z c #DA12B0",
"x c #DF16B0",
"c c #C625A9",
"v c #C52AA9",
"b c #C824AA",
"n c #E304B3",
"m c #E402B2",
"M c #E600B3",
"N c #E600B4",
"B c #E700B5",
"V c #E603B4",
"C c #E20FB1",
"Z c #EB05B4",
"A c #84FFB5",
"S c #8CFFBD",
/* pixels */
"AAAA8*$$$$*8AAAA",
"A88*$$$$$$$$*88A",
"A8*$>e-#$1&$$*8A",
"A*#fMBNb+Mi$$$*A",
"8$.MjxBZ=Mi$$$$8",
"*$gz#$cNrM074$$*",
"$@Ma$$7BrMMMMq%$",
"$oM5$$3BrMnulM;$",
"$&MX$$ NrMp$OM6$",
"$$Ml$$jNrMs$>M5$",
"*$yMvCNN=MMtjMo*",
"8$+qMBN9#MMMMd$8",
"A*$$<e<%$2:64#*A",
"A8*$$$$$$$$$$*8A",
"AS8*$$$$$$$$*88A",
"AAAA8*$$$$*8AAAA"
};
