/* XPM */
static char *Pie_Large[] = {
/* columns rows colors chars-per-pixel */
"32 32 13 1",
"  c black",
". c #292C29",
"X c #633818",
"o c #424142",
"O c #636163",
"+ c #31208C",
"@ c #2120B5",
"# c #2120F7",
"$ c #8C4D21",
"% c #BD6D29",
"& c #C67129",
"* c #D68642",
"= c gray100",
/* pixels */
"================================",
"================================",
"============        ============",
"========    &&&%%&&&    ========",
"======  &&&&**%$$%**&&&&  ======",
"====  &&%$$**&$+@$&**$$%&&  ====",
"=== &&&&$+$&**$@#$**&$@$&&&& ===",
"== &&&**$$$%**%$$%**%$$$**&&& ==",
"= &*&**&**%$***%%***$%**&**&*& =",
"= &*&**********************&*& =",
" &&&***%$$%**%X%%X%**%$$%***&&& ",
" &*&%*%$##$***%XX%***$++$%**&*& ",
" &*&$%$+#@$%$*%XX%*$%$#++$%$%*& ",
" &*&%*%$++$**%X%%X%**$##$%**&*& ",
" &*&**&%$$%**********%$$%%**&*& ",
" &*&******%$***%%***X%******&*& ",
" &*&***%$$$%**%$$%**%$$$%***&*& ",
" &&*&**$@+$**%$#@$%**$+#$**&*&& ",
"= &*&**$+#$**$+#@@$**$@+$**&*& =",
"= &**&%$$$%**$@@++$**%$$$%&**& =",
"=  &&*$%&***&%$@#$%&***&%$*&&  =",
"==  &&***&&&**%$$%**&&&***&&  ==",
"== o  &&****&&&%%&&&****&&  . ==",
"== o.o  &&&&********&&&&  .o. ==",
"=== .o.o    &&&&&&&&    .o.o ===",
"=== .o.O.o.o        .o.O.O.o ===",
"==== o.O.O.O.o.o.o.o.O.O.o. ====",
"=====  o.O.O.O.O.O.O.O.o.  =====",
"=======   .o.o.o.o.o.o   =======",
"==========            ==========",
"================================",
"================================"
};
