/* XPM */
static char *Pokey[] = {
/* columns rows colors chars-per-pixel */
"16 16 9 1",
"  c black",
". c #424142",
"X c #737173",
"o c #BD0400",
"O c #FF0400",
"+ c #FF7D7B",
"@ c #848284",
"# c #C6C3C6",
"$ c gray100",
/* pixels */
"$$$$$$$ $$$$$$$$",
"$$$$$$$ $$$$$$$$",
"$$$$$$$. $$$$$$$",
"$$$$$..XX..$$$$$",
"$$$$.XX@@XX.$$$$",
"$$$.X@@@@@@X.$$$",
"$$$.   @@   .$$$",
"  .X#o+XX+o#X.  ",
"$$ X#oO@@Oo#X $$",
"$$$. oo@@oo .$$$",
"$$$.X  @@  X.$$$",
"$$$$.XX@@XX.$$$$",
"$$$$$..XX..$$$$$",
"$$$$$$$ .$$$$$$$",
"$$$$$$$$ $$$$$$$",
"$$$$$$$$ $$$$$$$"
};
