/* XPM */
static char *DownwardRedirector[] = {
/* columns rows colors chars-per-pixel */
"16 16 3 1",
"  c #005900",
". c #00AE00",
"X c gray100",
/* pixels */
"  XXXXXXXXXXXX  ",
" . XXXXXXXXXX . ",
" .. XXXXXXXX .. ",
" ... XXXXXX ... ",
" .... XXXX .... ",
" ..... XX ..... ",
"X .....  ..... X",
"XX .......... XX",
"XXX ........ XXX",
"XXXX ...... XXXX",
"XXXXX .... XXXXX",
"XXXXX .... XXXXX",
"XXXXXX .. XXXXXX",
"XXXXXX .. XXXXXX",
"XXXXXXX  XXXXXXX",
"XXXXXXX  XXXXXXX"
};
