/* XPM */
static char *CWRedirector[] = {
/* columns rows colors chars-per-pixel */
"16 16 3 1",
"  c #005900",
". c #00AE00",
"X c gray100",
/* pixels */
"XXX          XXX",
"XX .......... XX",
"X ...      ... X",
"X .. XXXXXX .. X",
" .. XXXXXXXX .. ",
" .. XXXXXX X .. ",
"    XXXXX  X .. ",
"XXXXXXXX . X .. ",
"XXXXXXX ..  ... ",
"XXXXXX ... ... X",
"XXXXX ......  XX",
"XXXXXX ...  XXXX",
"XXXXXXX .. XXXXX",
"XXXXXXXX . XXXXX",
"XXXXXXXXX  XXXXX",
"XXXXXXXXXX XXXXX"
};
