/* XPM */
static char *RightwardRockifier[] = {
/* columns rows colors chars-per-pixel */
"16 16 9 1",
"  c #005900",
". c #310084",
"X c #4200B5",
"o c #00AE00",
"O c #940000",
"+ c #BD0000",
"@ c #DE0000",
"# c red",
"$ c gray100",
/* pixels */
"$$$$$$OOOO      ",
"$$$$OO+++ ooooo ",
"$$$O++@@ ooXoo $",
"$$O+@@# ooX.o $$",
"$O+@## ooX.oo $$",
"$O+@  ooX.oo $$$",
"O+  oooX.ooo $$$",
"  ooooX.ooo $$$$",
"  ooooX.ooo $$$$",
"O+  oooX.ooo $$$",
"$O+@  ooX.oo $$$",
"$O+@## ooX.oo $$",
"$$O+@@# ooX.o $$",
"$$$O++@@ ooXoo $",
"$$$$OO+++ ooooo ",
"$$$$$$OOOO      "
};
