/* XPM */
static char *LeftwardRockifier[] = {
/* columns rows colors chars-per-pixel */
"16 16 9 1",
"  c #005900",
". c #310084",
"X c #4200B5",
"o c #00AE00",
"O c #940000",
"+ c #BD0000",
"@ c #DE0000",
"# c red",
"$ c gray100",
/* pixels */
"      OOOO$$$$$$",
" ooooo +++OO$$$$",
"$ ooXoo @@++O$$$",
"$$ o.Xoo #@@+O$$",
"$$ oo.Xoo ##@+O$",
"$$$ oo.Xoo  @+O$",
"$$$ ooo.Xooo  +O",
"$$$$ ooo.Xoooo  ",
"$$$$ ooo.Xoooo  ",
"$$$ ooo.Xooo  +O",
"$$$ oo.Xoo  @+O$",
"$$ oo.Xoo ##@+O$",
"$$ o.Xoo #@@+O$$",
"$ ooXoo @@++O$$$",
" ooooo +++OO$$$$",
"      OOOO$$$$$$"
};
