/* XPM */
static char *Sharkie[] = {
/* columns rows colors chars-per-pixel */
"16 16 10 1",
"  c #520000",
". c #525552",
"X c #7B7D7B",
"o c #CE0400",
"O c #FF0808",
"+ c #FF5552",
"@ c #949694",
"# c #ADAAAD",
"$ c #C6C3C6",
"% c gray100",
/* pixels */
"%%%..........%%%",
"%%.##########.%%",
"%.XXXX####XXXX.%",
".##$o+X##Xo+$##.",
".##$oO....oO$##.",
".@#XX.@@@@.XX#@.",
"..@#.@@####.#@..",
". .@@@####@@@.$.",
". $..@@@@@@.. $.",
". $$ ......$$  .",
".$ $ $$ $$ $   .",
".$   $  $    $ .",
"%. $        $$.%",
"%%.$$ $   $ $.%%",
"%%%.. $$ $$..%%%",
"%%%%%......%%%%%"
};
