/* XPM */
static char *Spikey[] = {
/* columns rows colors chars-per-pixel */
"16 16 10 1",
"  c black",
". c #4A005A",
"X c #0030A5",
"o c #004DEF",
"O c #7B008C",
"+ c #6B9AFF",
"@ c #A500BD",
"# c #E710FF",
"$ c #C6C7C6",
"% c gray100",
/* pixels */
"%%%%%%%.%%%%%%%%",
"%.%.%%%.%%%%.%.%",
"%%..%%%O.%%%..%%",
"%....OO@@OO....%",
"%%%.O@@##@@O.%%%",
"%%%O@######@O%%%",
"%%%O   ##   O%%%",
"..O@$X+@@+X$@O..",
"%%.@$Xo##oX$@.%%",
"%%%O XX##XX O%%%",
"%%%O@  ##  @O%%%",
"%%%.O@@##@@O.%%%",
"%....OO@@OO....%",
"%%..%%%.O%%%..%%",
"%.%.%%%%.%%%.%.%",
"%%%%%%%%.%%%%%%%"
};
