/* XPM */
static char *Squeakie[] = {
/* columns rows colors chars-per-pixel */
"16 16 10 1",
"  c black",
". c #5A1C00",
"X c #6B2000",
"o c #943000",
"O c #AD0000",
"+ c #AD3800",
"@ c #FF0400",
"# c #FF5552",
"$ c #FF8684",
"% c gray100",
/* pixels */
"%%%%%%%%%%%%%%%%",
"%%...%%%%%%...%%",
"%.ooo.%%%%.ooo.%",
".o+$+o....o+$+o.",
".o$$$++++++$$$o.",
".o+$++++++++$+o.",
"%.o++++++++++o.%",
"%%.o   ++   o.%%",
"%%.o+O#XXO#+o.%%",
"%%%.oO@++O@o.%%%",
"%%%.o  ++  o.%%%",
"%%%%.o++++o.%%%%",
"%%%%%.oooo.%%%%%",
"%%%%%%.  .%%%%%%",
"%%%%%%%  %%%%%%%",
"%%%%%%%%%%%%%%%%"
};
