/* XPM */
static char *StableTNT[] = {
/* columns rows colors chars-per-pixel */
"16 16 7 1",
"  c black",
". c #AD0000",
"X c red",
"o c #FFDF00",
"O c #848284",
"+ c #C6C3C6",
"@ c gray100",
/* pixels */
"@@@@@@@@+O+O@@@@",
"@@@@@@@+O+O+O@@@",
"@@@@@@@O++@O+@@@",
"@@@...    .+O@@@",
"@@.XXXXXXXXO+.@@",
"@.XXXXXXXXX+OX.@",
"@.XXXXXXXXXO+X.@",
"@.XXoooooooO+X.@",
"@.XXooooooo+OX.@",
"@.XXXXXooXXO+X.@",
"@.XXXXXooXX+OX.@",
"@.XXXXXooXXX+X.@",
"@.XXXXXooXXXXX.@",
"@.XXXXXXXXXXXX.@",
"@@.XXXXXXXXXX.@@",
"@@@..........@@@"
};
